<?xml version="1.0" encoding="UTF-8"?><svg xmlns="http://www.w3.org/2000/svg" xmlns:xlink="http://www.w3.org/1999/xlink" height="497.5" preserveAspectRatio="xMidYMid meet" version="1.0" viewBox="-0.1 -0.1 481.2 497.5" width="481.2" zoomAndPan="magnify"><defs><clipPath id="a"><path d="M 208 455 L 242 455 L 242 497.421875 L 208 497.421875 Z M 208 455"/></clipPath><clipPath id="b"><path d="M 239 455 L 273 455 L 273 497.421875 L 239 497.421875 Z M 239 455"/></clipPath></defs><g><g id="change1_2"><path d="M 20.792969 264.742188 L 10.824219 295.410156 L 37.285156 289.917969 L 28.929688 264.179688 Z M 9.339844 297.738281 C 9.058594 297.738281 8.785156 297.621094 8.59375 297.40625 C 8.355469 297.140625 8.277344 296.769531 8.386719 296.429688 L 19.097656 263.480469 C 19.226562 263.09375 19.574219 262.820312 19.980469 262.792969 L 29.570312 262.132812 C 30.035156 262.105469 30.449219 262.386719 30.589844 262.820312 L 39.53125 290.359375 C 39.617188 290.632812 39.585938 290.925781 39.445312 291.171875 C 39.300781 291.417969 39.0625 291.589844 38.785156 291.648438 L 9.542969 297.71875 C 9.476562 297.734375 9.40625 297.738281 9.339844 297.738281" fill="#e9c261"/></g><g id="change1_3"><path d="M 2.175781 322.039062 L 11.703125 328.960938 L 46.007812 316.773438 L 37.90625 291.832031 L 10.113281 297.601562 Z M 11.539062 331.078125 C 11.332031 331.078125 11.125 331.015625 10.953125 330.890625 L 0.410156 323.226562 C 0.0625 322.972656 -0.0859375 322.523438 0.046875 322.109375 L 8.386719 296.429688 C 8.5 296.089844 8.785156 295.835938 9.136719 295.761719 L 38.378906 289.691406 C 38.875 289.589844 39.371094 289.875 39.53125 290.359375 L 48.210938 317.082031 C 48.378906 317.597656 48.105469 318.148438 47.59375 318.332031 L 11.875 331.023438 C 11.765625 331.0625 11.652344 331.078125 11.539062 331.078125" fill="#e9c261"/></g><g id="change1_4"><path d="M 65.597656 370.585938 L 65.695312 370.878906 L 65.851562 370.769531 Z M 65.160156 373.480469 C 65.054688 373.480469 64.949219 373.464844 64.84375 373.429688 C 64.542969 373.328125 64.304688 373.089844 64.210938 372.785156 L 62.75 368.277344 C 62.613281 367.867188 62.761719 367.414062 63.113281 367.160156 C 63.464844 366.90625 63.9375 366.90625 64.289062 367.160156 L 68.15625 369.972656 C 68.417969 370.160156 68.574219 370.464844 68.570312 370.785156 C 68.566406 371.109375 68.410156 371.410156 68.144531 371.597656 L 65.734375 373.296875 C 65.566406 373.417969 65.363281 373.480469 65.160156 373.480469" fill="#e9c261"/></g><g id="change1_5"><path d="M 13.664062 330.386719 L 41.578125 350.65625 L 54.796875 343.8125 L 46.625 318.675781 Z M 41.488281 352.828125 C 41.285156 352.828125 41.078125 352.765625 40.902344 352.640625 L 10.953125 330.890625 C 10.652344 330.671875 10.496094 330.304688 10.550781 329.9375 C 10.601562 329.570312 10.855469 329.261719 11.207031 329.136719 L 46.925781 316.445312 C 47.179688 316.355469 47.460938 316.371094 47.703125 316.492188 C 47.945312 316.609375 48.128906 316.824219 48.210938 317.078125 L 56.960938 344 C 57.113281 344.464844 56.90625 344.972656 56.46875 345.195312 L 41.949219 352.71875 C 41.804688 352.792969 41.648438 352.828125 41.488281 352.828125" fill="#e9c261"/></g><g id="change1_6"><path d="M 43.386719 351.972656 L 61.796875 365.351562 L 55.421875 345.738281 Z M 63.699219 368.96875 C 63.492188 368.96875 63.289062 368.90625 63.113281 368.777344 L 40.902344 352.640625 C 40.621094 352.433594 40.46875 352.101562 40.492188 351.753906 C 40.519531 351.410156 40.722656 351.101562 41.03125 350.941406 L 55.550781 343.421875 C 55.808594 343.285156 56.117188 343.269531 56.390625 343.386719 C 56.660156 343.496094 56.871094 343.722656 56.960938 344 L 64.652344 367.660156 C 64.785156 368.070312 64.640625 368.523438 64.289062 368.777344 C 64.113281 368.90625 63.90625 368.96875 63.699219 368.96875" fill="#e9c261"/></g><g id="change1_7"><path d="M 43.386719 145.445312 L 55.421875 151.679688 L 61.796875 132.070312 Z M 56.011719 154.109375 C 55.851562 154.109375 55.695312 154.070312 55.550781 153.996094 L 41.03125 146.476562 C 40.722656 146.316406 40.519531 146.011719 40.492188 145.664062 C 40.46875 145.320312 40.621094 144.984375 40.902344 144.78125 L 63.113281 128.640625 C 63.464844 128.386719 63.9375 128.386719 64.289062 128.640625 C 64.640625 128.894531 64.785156 129.347656 64.652344 129.757812 L 56.960938 153.417969 C 56.871094 153.699219 56.660156 153.921875 56.390625 154.035156 C 56.269531 154.085938 56.140625 154.109375 56.011719 154.109375" fill="#e9c261"/></g><g id="change1_8"><path d="M 24.949219 251.945312 L 21.457031 262.691406 L 28.292969 262.222656 Z M 20.050781 264.789062 C 19.742188 264.789062 19.453125 264.648438 19.261719 264.40625 C 19.058594 264.144531 18.996094 263.796875 19.097656 263.480469 L 24 248.402344 C 24.132812 247.988281 24.515625 247.710938 24.949219 247.710938 C 25.382812 247.710938 25.765625 247.988281 25.902344 248.402344 L 30.589844 262.820312 C 30.6875 263.113281 30.640625 263.433594 30.46875 263.6875 C 30.296875 263.945312 30.015625 264.105469 29.710938 264.128906 L 20.117188 264.789062 C 20.097656 264.789062 20.074219 264.789062 20.050781 264.789062" fill="#e9c261"/></g><g id="change1_9"><path d="M 13.664062 167.03125 L 46.625 178.742188 L 54.796875 153.605469 L 41.578125 146.761719 Z M 47.261719 181.03125 C 47.148438 181.03125 47.035156 181.011719 46.925781 180.972656 L 11.207031 168.28125 C 10.855469 168.15625 10.601562 167.851562 10.550781 167.484375 C 10.496094 167.113281 10.652344 166.75 10.953125 166.53125 L 40.902344 144.78125 C 41.207031 144.558594 41.613281 144.527344 41.949219 144.703125 L 56.46875 152.222656 C 56.90625 152.445312 57.113281 152.953125 56.960938 153.417969 L 48.210938 180.339844 C 48.128906 180.597656 47.945312 180.808594 47.703125 180.925781 C 47.5625 180.996094 47.410156 181.03125 47.261719 181.03125" fill="#e9c261"/></g><g id="change1_10"><path d="M 10.113281 199.820312 L 37.90625 205.589844 L 46.007812 180.644531 L 11.703125 168.457031 L 2.175781 175.382812 Z M 38.582031 207.75 C 38.511719 207.75 38.445312 207.742188 38.378906 207.730469 L 9.136719 201.660156 C 8.785156 201.585938 8.5 201.328125 8.386719 200.988281 L 0.046875 175.308594 C -0.0859375 174.898438 0.0625 174.445312 0.410156 174.191406 L 10.953125 166.53125 C 11.21875 166.335938 11.5625 166.285156 11.875 166.398438 L 47.59375 179.085938 C 48.105469 179.269531 48.378906 179.824219 48.210938 180.339844 L 39.53125 207.058594 C 39.394531 207.476562 39.007812 207.75 38.582031 207.75" fill="#e9c261"/></g><g id="change1_11"><path d="M 21.457031 234.730469 L 24.949219 245.476562 L 28.292969 235.199219 Z M 24.949219 249.710938 C 24.515625 249.710938 24.132812 249.429688 24 249.019531 L 19.097656 233.9375 C 18.996094 233.621094 19.058594 233.277344 19.261719 233.015625 C 19.464844 232.753906 19.789062 232.609375 20.117188 232.632812 L 29.710938 233.292969 C 30.015625 233.3125 30.296875 233.476562 30.46875 233.730469 C 30.640625 233.984375 30.6875 234.304688 30.589844 234.597656 L 25.902344 249.019531 C 25.765625 249.429688 25.382812 249.710938 24.949219 249.710938" fill="#e9c261"/></g><g id="change1_12"><path d="M 20.792969 232.679688 L 28.929688 233.238281 L 37.285156 207.503906 L 10.824219 202.007812 Z M 29.640625 235.289062 C 29.617188 235.289062 29.59375 235.289062 29.570312 235.285156 L 19.980469 234.628906 C 19.574219 234.597656 19.226562 234.328125 19.097656 233.9375 L 8.386719 200.988281 C 8.277344 200.648438 8.355469 200.277344 8.59375 200.011719 C 8.832031 199.746094 9.195312 199.628906 9.542969 199.699219 L 38.785156 205.769531 C 39.0625 205.828125 39.300781 206.003906 39.445312 206.246094 C 39.585938 206.492188 39.617188 206.789062 39.53125 207.058594 L 30.589844 234.597656 C 30.457031 235.011719 30.070312 235.289062 29.640625 235.289062" fill="#e9c261"/></g><g id="change1_13"><path d="M 65.695312 126.539062 L 65.597656 126.835938 L 65.851562 126.652344 Z M 63.699219 130.449219 C 63.492188 130.449219 63.289062 130.386719 63.113281 130.257812 C 62.761719 130.003906 62.613281 129.554688 62.75 129.140625 L 64.210938 124.632812 C 64.304688 124.328125 64.542969 124.09375 64.84375 123.992188 C 65.144531 123.890625 65.476562 123.9375 65.738281 124.121094 L 68.148438 125.824219 C 68.410156 126.007812 68.566406 126.308594 68.570312 126.632812 C 68.570312 126.957031 68.417969 127.261719 68.15625 127.449219 L 64.289062 130.257812 C 64.113281 130.386719 63.90625 130.449219 63.699219 130.449219" fill="#e9c261"/></g><g id="change1_14"><path d="M 66.339844 372.871094 L 75.597656 401.347656 L 89.75 388.136719 L 67.5625 372.011719 Z M 75.128906 404.148438 C 75.046875 404.148438 74.960938 404.140625 74.878906 404.117188 C 74.546875 404.03125 74.285156 403.785156 74.179688 403.460938 L 64.210938 372.789062 C 64.074219 372.371094 64.226562 371.914062 64.585938 371.660156 L 66.992188 369.964844 C 67.34375 369.714844 67.8125 369.71875 68.15625 369.972656 L 91.90625 387.230469 C 92.148438 387.40625 92.300781 387.679688 92.316406 387.976562 C 92.335938 388.277344 92.21875 388.566406 92.003906 388.769531 L 75.8125 403.882812 C 75.625 404.054688 75.378906 404.148438 75.128906 404.148438" fill="#e9c261"/></g><g id="change1_15"><path d="M 66.339844 124.546875 L 67.5625 125.410156 L 89.75 109.285156 L 75.597656 96.070312 Z M 67.570312 127.640625 C 67.367188 127.640625 67.164062 127.578125 66.992188 127.457031 L 64.582031 125.757812 C 64.226562 125.503906 64.074219 125.046875 64.210938 124.632812 L 74.179688 93.960938 C 74.285156 93.636719 74.546875 93.386719 74.878906 93.300781 C 75.210938 93.214844 75.5625 93.304688 75.8125 93.539062 L 92.003906 108.648438 C 92.21875 108.851562 92.335938 109.144531 92.316406 109.441406 C 92.300781 109.738281 92.148438 110.011719 91.90625 110.1875 L 68.15625 127.449219 C 67.980469 127.574219 67.777344 127.640625 67.570312 127.640625" fill="#e9c261"/></g><g id="change1_16"><path d="M 76.277344 93.972656 L 91.398438 108.085938 L 112.398438 92.832031 L 86.851562 61.425781 Z M 91.320312 110.378906 C 91.074219 110.378906 90.828125 110.289062 90.636719 110.109375 L 74.449219 95 C 74.164062 94.734375 74.058594 94.332031 74.179688 93.960938 L 85.519531 59.0625 C 85.632812 58.714844 85.925781 58.453125 86.285156 58.386719 C 86.648438 58.316406 87.015625 58.453125 87.246094 58.738281 L 114.617188 92.390625 C 114.789062 92.601562 114.867188 92.878906 114.832031 93.148438 C 114.796875 93.421875 114.648438 93.667969 114.429688 93.828125 L 91.90625 110.1875 C 91.730469 110.316406 91.527344 110.378906 91.320312 110.378906" fill="#e9c261"/></g><g id="change1_17"><path d="M 76.277344 403.445312 L 86.851562 435.992188 L 112.398438 404.589844 L 91.398438 389.335938 Z M 86.46875 439.050781 C 86.410156 439.050781 86.347656 439.042969 86.285156 439.03125 C 85.925781 438.964844 85.632812 438.707031 85.519531 438.359375 L 74.179688 403.460938 C 74.058594 403.089844 74.164062 402.683594 74.449219 402.417969 L 90.636719 387.308594 C 90.988281 386.984375 91.523438 386.949219 91.90625 387.230469 L 114.429688 403.59375 C 114.648438 403.753906 114.796875 404 114.832031 404.269531 C 114.867188 404.542969 114.789062 404.816406 114.617188 405.03125 L 87.246094 438.679688 C 87.054688 438.917969 86.769531 439.050781 86.46875 439.050781" fill="#e9c261"/></g><g id="change1_18"><path d="M 87.589844 59.160156 L 114.019531 91.652344 L 134.6875 76.640625 L 113.539062 41.871094 L 93.207031 41.871094 Z M 113.839844 94.019531 C 113.550781 94.019531 113.261719 93.894531 113.0625 93.652344 L 85.695312 60 C 85.480469 59.738281 85.414062 59.382812 85.519531 59.0625 L 91.527344 40.5625 C 91.664062 40.148438 92.046875 39.871094 92.480469 39.871094 L 114.101562 39.871094 C 114.449219 39.871094 114.773438 40.050781 114.953125 40.351562 L 136.875 76.390625 C 137.144531 76.835938 137.027344 77.414062 136.609375 77.71875 L 114.429688 93.828125 C 114.25 93.957031 114.046875 94.019531 113.839844 94.019531" fill="#e9c261"/></g><g id="change1_19"><path d="M 93.207031 455.550781 L 113.539062 455.550781 L 134.6875 420.777344 L 114.019531 405.765625 L 87.589844 438.257812 Z M 114.101562 457.550781 L 92.480469 457.550781 C 92.046875 457.550781 91.664062 457.269531 91.527344 456.859375 L 85.519531 438.359375 C 85.414062 438.035156 85.480469 437.679688 85.695312 437.417969 L 113.0625 403.769531 C 113.398438 403.355469 114 403.28125 114.429688 403.589844 L 136.609375 419.699219 C 137.027344 420.007812 137.144531 420.585938 136.875 421.027344 L 114.953125 457.070312 C 114.773438 457.367188 114.449219 457.550781 114.101562 457.550781" fill="#e9c261"/></g><g id="change1_20"><path d="M 115.878906 41.871094 L 136.308594 75.464844 L 157.472656 60.082031 L 149.566406 41.871094 Z M 136.019531 77.910156 C 135.953125 77.910156 135.890625 77.902344 135.824219 77.890625 C 135.550781 77.835938 135.3125 77.667969 135.164062 77.429688 L 113.246094 41.390625 C 113.058594 41.082031 113.050781 40.695312 113.230469 40.378906 C 113.40625 40.066406 113.738281 39.871094 114.101562 39.871094 L 150.21875 39.871094 C 150.617188 39.871094 150.980469 40.105469 151.136719 40.472656 L 159.628906 60.019531 C 159.8125 60.453125 159.675781 60.953125 159.296875 61.230469 L 136.609375 77.71875 C 136.4375 77.84375 136.230469 77.910156 136.019531 77.910156" fill="#e9c261"/></g><g id="change1_21"><path d="M 115.878906 455.550781 L 149.566406 455.550781 L 157.472656 437.335938 L 136.308594 421.957031 Z M 150.21875 457.550781 L 114.101562 457.550781 C 113.738281 457.550781 113.40625 457.355469 113.230469 457.039062 C 113.050781 456.722656 113.058594 456.339844 113.246094 456.03125 L 135.164062 419.988281 C 135.3125 419.75 135.550781 419.585938 135.824219 419.527344 C 136.097656 419.476562 136.382812 419.535156 136.609375 419.699219 L 159.296875 436.191406 C 159.675781 436.46875 159.8125 436.96875 159.628906 437.398438 L 151.136719 456.949219 C 150.980469 457.3125 150.617188 457.550781 150.21875 457.550781" fill="#e9c261"/></g><g id="change1_22"><path d="M 151.746094 41.871094 L 159.132812 58.878906 L 181.683594 42.496094 L 181.507812 41.871094 Z M 158.710938 61.421875 C 158.621094 61.421875 158.53125 61.40625 158.445312 61.382812 C 158.152344 61.304688 157.914062 61.097656 157.792969 60.816406 L 149.304688 41.269531 C 149.167969 40.960938 149.199219 40.601562 149.382812 40.320312 C 149.570312 40.039062 149.882812 39.871094 150.21875 39.871094 L 182.269531 39.871094 C 182.71875 39.871094 183.113281 40.171875 183.234375 40.605469 L 183.792969 42.632812 C 183.90625 43.035156 183.753906 43.464844 183.417969 43.710938 L 159.296875 61.230469 C 159.125 61.355469 158.917969 61.421875 158.710938 61.421875" fill="#e9c261"/></g><g id="change1_23"><path d="M 151.746094 455.550781 L 181.507812 455.550781 L 181.683594 454.921875 L 159.132812 438.542969 Z M 182.269531 457.550781 L 150.21875 457.550781 C 149.882812 457.550781 149.570312 457.378906 149.382812 457.097656 C 149.199219 456.816406 149.167969 456.460938 149.304688 456.152344 L 157.792969 436.601562 C 157.914062 436.324219 158.152344 436.113281 158.445312 436.035156 C 158.738281 435.957031 159.054688 436.011719 159.296875 436.191406 L 183.417969 453.710938 C 183.753906 453.953125 183.90625 454.382812 183.792969 454.785156 L 183.234375 456.816406 C 183.113281 457.25 182.71875 457.550781 182.269531 457.550781" fill="#e9c261"/></g><g id="change1_24"><path d="M 185.621094 457.550781 L 182.269531 457.550781 C 181.957031 457.550781 181.664062 457.402344 181.476562 457.15625 C 181.285156 456.90625 181.222656 456.585938 181.304688 456.285156 L 181.867188 454.253906 C 181.953125 453.9375 182.191406 453.683594 182.5 453.574219 C 182.808594 453.46875 183.152344 453.519531 183.417969 453.710938 L 186.210938 455.742188 C 186.558594 455.996094 186.703125 456.445312 186.570312 456.859375 C 186.4375 457.269531 186.054688 457.550781 185.621094 457.550781" fill="#e9c261"/></g><g id="change1_25"><path d="M 182.828125 43.898438 C 182.71875 43.898438 182.609375 43.882812 182.5 43.84375 C 182.191406 43.734375 181.953125 43.480469 181.867188 43.164062 L 181.304688 41.136719 C 181.222656 40.835938 181.285156 40.511719 181.476562 40.265625 C 181.664062 40.015625 181.957031 39.871094 182.269531 39.871094 L 185.621094 39.871094 C 186.054688 39.871094 186.4375 40.148438 186.570312 40.5625 C 186.703125 40.972656 186.558594 41.425781 186.210938 41.679688 L 183.417969 43.707031 C 183.246094 43.835938 183.039062 43.898438 182.828125 43.898438" fill="#e9c261"/></g><g id="change1_26"><path d="M 188.699219 39.871094 L 210.785156 39.871094 L 208.785156 25.28125 Z M 211.929688 41.871094 L 185.621094 41.871094 C 185.1875 41.871094 184.804688 41.589844 184.667969 41.179688 C 184.535156 40.765625 184.683594 40.316406 185.03125 40.0625 L 208.960938 22.679688 C 209.246094 22.472656 209.617188 22.429688 209.941406 22.570312 C 210.265625 22.707031 210.492188 23.007812 210.539062 23.355469 L 212.921875 40.734375 C 212.960938 41.019531 212.875 41.308594 212.683594 41.527344 C 212.492188 41.746094 212.21875 41.871094 211.929688 41.871094" fill="#e9c261"/></g><g id="change1_27"><path d="M 188.699219 457.550781 L 208.785156 472.140625 L 210.785156 457.550781 Z M 209.550781 474.929688 C 209.34375 474.929688 209.136719 474.863281 208.960938 474.738281 L 185.03125 457.359375 C 184.683594 457.105469 184.535156 456.652344 184.667969 456.242188 C 184.804688 455.828125 185.1875 455.550781 185.621094 455.550781 L 211.929688 455.550781 C 212.21875 455.550781 212.492188 455.675781 212.683594 455.890625 C 212.875 456.109375 212.960938 456.398438 212.921875 456.683594 L 210.539062 474.066406 C 210.492188 474.414062 210.265625 474.710938 209.941406 474.847656 C 209.816406 474.902344 209.683594 474.929688 209.550781 474.929688" fill="#e9c261"/></g><g id="change1_28"><path d="M 67.570312 126.640625 L 67.578125 126.640625 Z M 185.945312 455.550781 L 295.054688 455.550781 L 416.449219 367.351562 L 454.996094 248.710938 L 416.449219 130.066406 L 295.054688 41.871094 L 185.945312 41.871094 L 68.15625 127.449219 L 64.550781 130.066406 L 26.003906 248.710938 L 64.550781 367.351562 Z M 295.378906 457.550781 L 185.621094 457.550781 C 185.410156 457.550781 185.203125 457.480469 185.03125 457.359375 L 63.113281 368.777344 C 62.941406 368.652344 62.816406 368.480469 62.75 368.277344 L 24 249.019531 C 23.933594 248.816406 23.933594 248.601562 24 248.402344 L 62.75 129.140625 C 62.816406 128.941406 62.941406 128.765625 63.113281 128.640625 L 185.03125 40.0625 C 185.203125 39.9375 185.410156 39.871094 185.621094 39.871094 L 295.378906 39.871094 C 295.589844 39.871094 295.796875 39.9375 295.96875 40.0625 L 417.886719 128.640625 C 418.058594 128.765625 418.1875 128.941406 418.25 129.140625 L 457 248.402344 C 457.066406 248.601562 457.066406 248.816406 457 249.019531 L 418.25 368.277344 C 418.1875 368.480469 418.058594 368.652344 417.886719 368.777344 L 295.96875 457.359375 C 295.796875 457.480469 295.59375 457.550781 295.378906 457.550781" fill="#e9c261"/></g><g id="change1_29"><path d="M 212.804688 39.871094 L 239.5 39.871094 L 239.5 2.964844 L 210.621094 23.945312 Z M 240.5 41.871094 L 211.929688 41.871094 C 211.429688 41.871094 211.007812 41.5 210.941406 41.007812 L 208.558594 23.625 C 208.507812 23.261719 208.664062 22.898438 208.960938 22.679688 L 239.910156 0.191406 C 240.21875 -0.03125 240.617188 -0.0625 240.953125 0.109375 C 241.289062 0.28125 241.5 0.625 241.5 1 L 241.5 40.871094 C 241.5 41.421875 241.050781 41.871094 240.5 41.871094" fill="#e9c261"/></g><g clip-path="url(#a)" id="change1_1"><path d="M 210.621094 473.472656 L 239.5 494.457031 L 239.5 457.550781 L 212.804688 457.550781 Z M 240.5 497.421875 C 240.292969 497.421875 240.085938 497.355469 239.910156 497.226562 L 208.960938 474.738281 C 208.664062 474.523438 208.507812 474.160156 208.558594 473.792969 L 210.941406 456.414062 C 211.007812 455.917969 211.429688 455.550781 211.929688 455.550781 L 240.5 455.550781 C 241.050781 455.550781 241.5 455.996094 241.5 456.550781 L 241.5 496.421875 C 241.5 496.796875 241.289062 497.140625 240.953125 497.308594 C 240.8125 497.382812 240.65625 497.421875 240.5 497.421875" fill="#e9c261"/></g><g id="change1_30"><path d="M 241.5 39.871094 L 268.199219 39.871094 L 270.378906 23.945312 L 241.5 2.964844 Z M 269.070312 41.871094 L 240.5 41.871094 C 239.949219 41.871094 239.5 41.421875 239.5 40.871094 L 239.5 1 C 239.5 0.625 239.710938 0.28125 240.046875 0.109375 C 240.382812 -0.0625 240.78125 -0.03125 241.089844 0.191406 L 272.039062 22.679688 C 272.335938 22.898438 272.492188 23.261719 272.441406 23.625 L 270.0625 41.007812 C 269.992188 41.5 269.570312 41.871094 269.070312 41.871094" fill="#e9c261"/></g><g clip-path="url(#b)" id="change1_57"><path d="M 241.5 457.550781 L 241.5 494.457031 L 270.378906 473.472656 L 268.199219 457.550781 Z M 240.5 497.421875 C 240.34375 497.421875 240.191406 497.382812 240.046875 497.308594 C 239.710938 497.140625 239.5 496.796875 239.5 496.421875 L 239.5 456.550781 C 239.5 455.996094 239.949219 455.550781 240.5 455.550781 L 269.070312 455.550781 C 269.570312 455.550781 269.992188 455.917969 270.0625 456.414062 L 272.441406 473.792969 C 272.492188 474.160156 272.335938 474.523438 272.039062 474.738281 L 241.089844 497.226562 C 240.914062 497.355469 240.707031 497.421875 240.5 497.421875" fill="#e9c261"/></g><g id="change1_31"><path d="M 270.21875 457.550781 L 272.214844 472.140625 L 292.300781 457.550781 Z M 271.449219 474.929688 C 271.316406 474.929688 271.183594 474.902344 271.058594 474.847656 C 270.734375 474.710938 270.507812 474.414062 270.460938 474.066406 L 268.078125 456.683594 C 268.039062 456.398438 268.128906 456.109375 268.316406 455.890625 C 268.507812 455.675781 268.78125 455.550781 269.070312 455.550781 L 295.378906 455.550781 C 295.8125 455.550781 296.195312 455.828125 296.332031 456.242188 C 296.464844 456.652344 296.320312 457.105469 295.96875 457.359375 L 272.039062 474.738281 C 271.863281 474.863281 271.65625 474.929688 271.449219 474.929688" fill="#e9c261"/></g><g id="change1_32"><path d="M 270.21875 39.871094 L 292.300781 39.871094 L 272.214844 25.28125 Z M 295.378906 41.871094 L 269.070312 41.871094 C 268.78125 41.871094 268.507812 41.746094 268.316406 41.527344 C 268.128906 41.308594 268.039062 41.019531 268.078125 40.734375 L 270.460938 23.355469 C 270.507812 23.007812 270.734375 22.707031 271.058594 22.570312 C 271.382812 22.429688 271.753906 22.472656 272.039062 22.679688 L 295.96875 40.0625 C 296.320312 40.316406 296.464844 40.765625 296.332031 41.179688 C 296.195312 41.589844 295.8125 41.871094 295.378906 41.871094" fill="#e9c261"/></g><g id="change1_33"><path d="M 298.171875 43.898438 C 297.960938 43.898438 297.753906 43.835938 297.582031 43.707031 L 294.792969 41.679688 C 294.441406 41.425781 294.296875 40.972656 294.429688 40.5625 C 294.5625 40.148438 294.945312 39.871094 295.378906 39.871094 L 298.730469 39.871094 C 299.042969 39.871094 299.335938 40.015625 299.527344 40.265625 C 299.714844 40.511719 299.777344 40.835938 299.695312 41.136719 L 299.132812 43.164062 C 299.046875 43.480469 298.808594 43.734375 298.5 43.84375 C 298.394531 43.882812 298.28125 43.898438 298.171875 43.898438" fill="#e9c261"/></g><g id="change1_34"><path d="M 298.730469 457.550781 L 295.378906 457.550781 C 294.945312 457.550781 294.5625 457.269531 294.429688 456.859375 C 294.296875 456.445312 294.441406 455.996094 294.789062 455.742188 L 297.582031 453.710938 C 297.847656 453.519531 298.191406 453.46875 298.5 453.574219 C 298.808594 453.683594 299.046875 453.9375 299.132812 454.253906 L 299.695312 456.28125 C 299.777344 456.585938 299.714844 456.90625 299.527344 457.15625 C 299.335938 457.402344 299.042969 457.550781 298.730469 457.550781" fill="#e9c261"/></g><g id="change1_35"><path d="M 299.320312 42.496094 L 321.867188 58.878906 L 329.257812 41.871094 L 299.492188 41.871094 Z M 322.289062 61.421875 C 322.082031 61.421875 321.875 61.355469 321.703125 61.230469 L 297.582031 43.710938 C 297.246094 43.464844 297.09375 43.035156 297.207031 42.632812 L 297.765625 40.605469 C 297.886719 40.171875 298.28125 39.871094 298.730469 39.871094 L 330.78125 39.871094 C 331.117188 39.871094 331.433594 40.039062 331.617188 40.320312 C 331.800781 40.601562 331.832031 40.960938 331.695312 41.269531 L 323.207031 60.816406 C 323.085938 61.097656 322.847656 61.304688 322.554688 61.382812 C 322.46875 61.40625 322.378906 61.421875 322.289062 61.421875" fill="#e9c261"/></g><g id="change1_36"><path d="M 299.492188 455.550781 L 329.257812 455.550781 L 321.867188 438.542969 L 299.320312 454.921875 Z M 330.78125 457.550781 L 298.730469 457.550781 C 298.28125 457.550781 297.886719 457.25 297.765625 456.816406 L 297.207031 454.785156 C 297.09375 454.382812 297.246094 453.953125 297.582031 453.710938 L 321.703125 436.191406 C 321.945312 436.011719 322.261719 435.957031 322.554688 436.035156 C 322.847656 436.113281 323.085938 436.324219 323.207031 436.601562 L 331.695312 456.152344 C 331.832031 456.460938 331.800781 456.816406 331.617188 457.097656 C 331.433594 457.378906 331.117188 457.550781 330.78125 457.550781" fill="#e9c261"/></g><g id="change1_37"><path d="M 331.4375 455.550781 L 365.121094 455.550781 L 344.691406 421.957031 L 323.527344 437.335938 Z M 366.902344 457.550781 L 330.78125 457.550781 C 330.382812 457.550781 330.023438 457.3125 329.863281 456.949219 L 321.371094 437.398438 C 321.1875 436.96875 321.324219 436.46875 321.703125 436.191406 L 344.394531 419.699219 C 344.617188 419.535156 344.902344 419.476562 345.175781 419.527344 C 345.449219 419.585938 345.691406 419.75 345.835938 419.988281 L 367.753906 456.03125 C 367.941406 456.339844 367.949219 456.722656 367.773438 457.039062 C 367.59375 457.355469 367.261719 457.550781 366.902344 457.550781" fill="#e9c261"/></g><g id="change1_38"><path d="M 323.527344 60.082031 L 344.691406 75.464844 L 365.121094 41.871094 L 331.4375 41.871094 Z M 344.980469 77.910156 C 344.769531 77.910156 344.566406 77.84375 344.394531 77.71875 L 321.703125 61.230469 C 321.324219 60.953125 321.1875 60.453125 321.371094 60.019531 L 329.863281 40.472656 C 330.023438 40.105469 330.382812 39.871094 330.78125 39.871094 L 366.902344 39.871094 C 367.261719 39.871094 367.59375 40.066406 367.773438 40.378906 C 367.949219 40.695312 367.941406 41.082031 367.753906 41.390625 L 345.835938 77.429688 C 345.691406 77.667969 345.449219 77.835938 345.175781 77.890625 C 345.113281 77.902344 345.046875 77.910156 344.980469 77.910156" fill="#e9c261"/></g><g id="change1_39"><path d="M 346.3125 76.640625 L 366.980469 91.652344 L 393.410156 59.160156 L 387.792969 41.871094 L 367.464844 41.871094 Z M 367.160156 94.019531 C 366.953125 94.019531 366.75 93.957031 366.570312 93.828125 L 344.394531 77.71875 C 343.972656 77.414062 343.855469 76.835938 344.125 76.390625 L 366.046875 40.351562 C 366.226562 40.050781 366.550781 39.871094 366.902344 39.871094 L 388.519531 39.871094 C 388.953125 39.871094 389.335938 40.148438 389.472656 40.5625 L 395.480469 59.0625 C 395.585938 59.382812 395.519531 59.738281 395.304688 60 L 367.9375 93.652344 C 367.738281 93.894531 367.449219 94.019531 367.160156 94.019531" fill="#e9c261"/></g><g id="change1_40"><path d="M 367.464844 455.550781 L 387.792969 455.550781 L 393.410156 438.257812 L 366.980469 405.765625 L 346.3125 420.777344 Z M 388.519531 457.550781 L 366.902344 457.550781 C 366.550781 457.550781 366.226562 457.367188 366.046875 457.070312 L 344.125 421.027344 C 343.855469 420.585938 343.972656 420.007812 344.394531 419.699219 L 366.570312 403.589844 C 367.003906 403.277344 367.601562 403.355469 367.9375 403.769531 L 395.304688 437.417969 C 395.519531 437.679688 395.585938 438.035156 395.480469 438.359375 L 389.472656 456.859375 C 389.335938 457.269531 388.953125 457.550781 388.519531 457.550781" fill="#e9c261"/></g><g id="change1_41"><path d="M 368.601562 92.832031 L 389.601562 108.085938 L 404.722656 93.972656 L 394.148438 61.425781 Z M 389.679688 110.378906 C 389.476562 110.378906 389.269531 110.316406 389.09375 110.1875 L 366.570312 93.828125 C 366.351562 93.667969 366.203125 93.421875 366.167969 93.148438 C 366.132812 92.878906 366.210938 92.601562 366.386719 92.390625 L 393.753906 58.738281 C 393.984375 58.453125 394.347656 58.316406 394.714844 58.386719 C 395.074219 58.453125 395.367188 58.714844 395.480469 59.0625 L 406.820312 93.960938 C 406.941406 94.332031 406.835938 94.734375 406.554688 95 L 390.363281 110.109375 C 390.171875 110.289062 389.925781 110.378906 389.679688 110.378906" fill="#e9c261"/></g><g id="change1_42"><path d="M 368.601562 404.589844 L 394.148438 435.992188 L 404.722656 403.445312 L 389.601562 389.335938 Z M 394.53125 439.050781 C 394.234375 439.050781 393.945312 438.917969 393.753906 438.679688 L 366.386719 405.03125 C 366.210938 404.816406 366.132812 404.542969 366.167969 404.269531 C 366.203125 404 366.351562 403.753906 366.570312 403.59375 L 389.09375 387.230469 C 389.480469 386.949219 390.011719 386.980469 390.363281 387.308594 L 406.554688 402.417969 C 406.835938 402.683594 406.941406 403.089844 406.820312 403.460938 L 395.480469 438.359375 C 395.367188 438.707031 395.074219 438.964844 394.714844 439.03125 C 394.652344 439.042969 394.589844 439.050781 394.53125 439.050781" fill="#e9c261"/></g><g id="change1_43"><path d="M 391.246094 388.136719 L 405.402344 401.347656 L 414.660156 372.871094 L 413.4375 372.011719 Z M 405.871094 404.148438 C 405.621094 404.148438 405.375 404.054688 405.1875 403.882812 L 388.996094 388.769531 C 388.777344 388.566406 388.664062 388.277344 388.683594 387.976562 C 388.699219 387.679688 388.851562 387.40625 389.09375 387.230469 L 412.84375 369.972656 C 413.1875 369.71875 413.65625 369.714844 414.007812 369.964844 L 416.414062 371.660156 C 416.773438 371.914062 416.925781 372.371094 416.789062 372.789062 L 406.820312 403.460938 C 406.714844 403.785156 406.449219 404.03125 406.121094 404.117188 C 406.035156 404.140625 405.953125 404.148438 405.871094 404.148438" fill="#e9c261"/></g><g id="change1_44"><path d="M 391.246094 109.285156 L 413.4375 125.410156 L 414.660156 124.546875 L 405.402344 96.070312 Z M 413.429688 127.640625 C 413.222656 127.640625 413.015625 127.574219 412.84375 127.449219 L 389.09375 110.1875 C 388.851562 110.011719 388.699219 109.738281 388.683594 109.441406 C 388.664062 109.144531 388.777344 108.851562 388.996094 108.648438 L 405.1875 93.539062 C 405.4375 93.304688 405.785156 93.214844 406.121094 93.300781 C 406.449219 93.386719 406.714844 93.636719 406.820312 93.960938 L 416.789062 124.632812 C 416.925781 125.046875 416.773438 125.503906 416.414062 125.757812 L 414.007812 127.457031 C 413.832031 127.578125 413.632812 127.640625 413.429688 127.640625" fill="#e9c261"/></g><g id="change1_45"><path d="M 415.148438 370.769531 L 415.308594 370.878906 L 415.402344 370.582031 Z M 415.839844 373.480469 C 415.636719 373.480469 415.433594 373.417969 415.265625 373.296875 L 412.855469 371.597656 C 412.589844 371.410156 412.433594 371.109375 412.429688 370.785156 C 412.429688 370.464844 412.582031 370.160156 412.84375 369.972656 L 416.710938 367.160156 C 417.0625 366.90625 417.535156 366.90625 417.886719 367.160156 C 418.238281 367.414062 418.386719 367.867188 418.25 368.277344 L 416.789062 372.785156 C 416.695312 373.089844 416.457031 373.328125 416.15625 373.429688 C 416.054688 373.464844 415.945312 373.480469 415.839844 373.480469" fill="#e9c261"/></g><g id="change1_46"><path d="M 415.148438 126.652344 L 415.402344 126.835938 L 415.308594 126.539062 Z M 417.300781 130.449219 C 417.09375 130.449219 416.886719 130.386719 416.710938 130.257812 L 412.84375 127.449219 C 412.582031 127.261719 412.429688 126.957031 412.429688 126.632812 C 412.433594 126.308594 412.589844 126.007812 412.855469 125.824219 L 415.265625 124.121094 C 415.523438 123.941406 415.855469 123.890625 416.15625 123.992188 C 416.457031 124.09375 416.695312 124.328125 416.789062 124.632812 L 418.25 129.140625 C 418.386719 129.554688 418.238281 130.003906 417.886719 130.257812 C 417.710938 130.386719 417.507812 130.449219 417.300781 130.449219" fill="#e9c261"/></g><g id="change1_47"><path d="M 419.203125 132.070312 L 425.578125 151.679688 L 437.609375 145.445312 Z M 424.988281 154.109375 C 424.859375 154.109375 424.734375 154.085938 424.609375 154.035156 C 424.339844 153.921875 424.128906 153.699219 424.039062 153.417969 L 416.347656 129.757812 C 416.214844 129.347656 416.359375 128.894531 416.710938 128.640625 C 417.0625 128.386719 417.535156 128.386719 417.886719 128.640625 L 440.097656 144.78125 C 440.378906 144.984375 440.53125 145.320312 440.507812 145.664062 C 440.480469 146.011719 440.277344 146.316406 439.96875 146.476562 L 425.449219 153.996094 C 425.308594 154.070312 425.148438 154.109375 424.988281 154.109375" fill="#e9c261"/></g><g id="change1_48"><path d="M 425.578125 345.738281 L 419.203125 365.351562 L 437.609375 351.972656 Z M 417.300781 368.96875 C 417.09375 368.96875 416.886719 368.90625 416.710938 368.777344 C 416.359375 368.523438 416.214844 368.070312 416.347656 367.660156 L 424.039062 344 C 424.128906 343.722656 424.339844 343.496094 424.609375 343.386719 C 424.882812 343.273438 425.191406 343.285156 425.449219 343.421875 L 439.96875 350.941406 C 440.277344 351.101562 440.480469 351.410156 440.507812 351.753906 C 440.53125 352.101562 440.378906 352.433594 440.097656 352.640625 L 417.886719 368.777344 C 417.714844 368.90625 417.507812 368.96875 417.300781 368.96875" fill="#e9c261"/></g><g id="change1_49"><path d="M 452.707031 235.199219 L 456.050781 245.476562 L 459.539062 234.730469 Z M 456.050781 249.710938 C 455.617188 249.710938 455.234375 249.429688 455.097656 249.019531 L 450.410156 234.597656 C 450.316406 234.304688 450.359375 233.984375 450.53125 233.730469 C 450.703125 233.476562 450.984375 233.3125 451.292969 233.292969 L 460.882812 232.632812 C 461.214844 232.613281 461.535156 232.753906 461.738281 233.015625 C 461.945312 233.277344 462.003906 233.621094 461.902344 233.9375 L 457 249.019531 C 456.867188 249.429688 456.484375 249.710938 456.050781 249.710938" fill="#e9c261"/></g><g id="change1_50"><path d="M 452.707031 262.222656 L 459.539062 262.691406 L 456.050781 251.945312 Z M 460.949219 264.789062 C 460.929688 264.789062 460.902344 264.789062 460.882812 264.789062 L 451.292969 264.128906 C 450.984375 264.105469 450.703125 263.945312 450.53125 263.6875 C 450.359375 263.433594 450.316406 263.113281 450.410156 262.820312 L 455.097656 248.402344 C 455.234375 247.988281 455.617188 247.710938 456.050781 247.710938 C 456.484375 247.710938 456.867188 247.988281 457 248.402344 L 461.902344 263.480469 C 462.003906 263.796875 461.945312 264.144531 461.738281 264.40625 C 461.546875 264.648438 461.257812 264.789062 460.949219 264.789062" fill="#e9c261"/></g><g id="change1_51"><path d="M 426.203125 343.8125 L 439.421875 350.65625 L 467.335938 330.386719 L 434.375 318.675781 Z M 439.511719 352.828125 C 439.351562 352.828125 439.195312 352.792969 439.050781 352.71875 L 424.53125 345.195312 C 424.097656 344.972656 423.886719 344.464844 424.039062 344 L 432.789062 317.078125 C 432.871094 316.824219 433.058594 316.609375 433.300781 316.492188 C 433.542969 316.371094 433.820312 316.359375 434.074219 316.445312 L 469.796875 329.136719 C 470.144531 329.261719 470.398438 329.570312 470.449219 329.9375 C 470.503906 330.304688 470.347656 330.671875 470.046875 330.890625 L 440.097656 352.640625 C 439.921875 352.765625 439.71875 352.828125 439.511719 352.828125" fill="#e9c261"/></g><g id="change1_52"><path d="M 426.203125 153.605469 L 434.375 178.742188 L 467.335938 167.03125 L 439.421875 146.761719 Z M 433.738281 181.03125 C 433.589844 181.03125 433.4375 180.996094 433.300781 180.925781 C 433.058594 180.808594 432.871094 180.597656 432.789062 180.339844 L 424.039062 153.417969 C 423.886719 152.953125 424.097656 152.445312 424.53125 152.222656 L 439.050781 144.703125 C 439.382812 144.527344 439.789062 144.558594 440.097656 144.78125 L 470.046875 166.53125 C 470.347656 166.75 470.503906 167.113281 470.449219 167.484375 C 470.398438 167.851562 470.144531 168.15625 469.796875 168.28125 L 434.074219 180.972656 C 433.96875 181.011719 433.855469 181.03125 433.738281 181.03125" fill="#e9c261"/></g><g id="change1_53"><path d="M 443.714844 289.917969 L 470.175781 295.410156 L 460.207031 264.742188 L 452.070312 264.179688 Z M 471.660156 297.738281 C 471.59375 297.738281 471.523438 297.734375 471.457031 297.71875 L 442.21875 291.648438 C 441.9375 291.589844 441.699219 291.417969 441.554688 291.171875 C 441.410156 290.925781 441.382812 290.632812 441.46875 290.359375 L 450.410156 262.820312 C 450.550781 262.386719 450.972656 262.109375 451.429688 262.132812 L 461.019531 262.792969 C 461.425781 262.820312 461.777344 263.09375 461.902344 263.480469 L 472.609375 296.429688 C 472.722656 296.769531 472.644531 297.140625 472.40625 297.40625 C 472.214844 297.621094 471.941406 297.738281 471.660156 297.738281" fill="#e9c261"/></g><g id="change1_54"><path d="M 443.714844 207.503906 L 452.070312 233.238281 L 460.207031 232.679688 L 470.175781 202.007812 Z M 451.359375 235.289062 C 450.929688 235.289062 450.542969 235.011719 450.410156 234.597656 L 441.46875 207.058594 C 441.382812 206.789062 441.410156 206.492188 441.554688 206.246094 C 441.699219 206.003906 441.9375 205.828125 442.21875 205.769531 L 471.457031 199.699219 C 471.804688 199.628906 472.167969 199.746094 472.40625 200.011719 C 472.644531 200.277344 472.722656 200.648438 472.609375 200.988281 L 461.902344 233.9375 C 461.777344 234.328125 461.425781 234.597656 461.019531 234.628906 L 451.429688 235.285156 C 451.40625 235.289062 451.382812 235.289062 451.359375 235.289062" fill="#e9c261"/></g><g id="change1_55"><path d="M 434.992188 316.773438 L 469.296875 328.960938 L 478.824219 322.039062 L 470.890625 297.601562 L 443.09375 291.832031 Z M 469.460938 331.078125 C 469.347656 331.078125 469.234375 331.0625 469.125 331.023438 L 433.40625 318.332031 C 432.894531 318.148438 432.621094 317.597656 432.789062 317.082031 L 441.46875 290.359375 C 441.625 289.875 442.121094 289.59375 442.621094 289.691406 L 471.863281 295.761719 C 472.214844 295.835938 472.5 296.089844 472.609375 296.429688 L 480.949219 322.109375 C 481.085938 322.523438 480.9375 322.972656 480.589844 323.226562 L 470.046875 330.890625 C 469.875 331.015625 469.667969 331.078125 469.460938 331.078125" fill="#e9c261"/></g><g id="change1_56"><path d="M 434.992188 180.644531 L 443.09375 205.589844 L 470.890625 199.820312 L 478.824219 175.382812 L 469.296875 168.457031 Z M 442.417969 207.75 C 441.992188 207.75 441.605469 207.476562 441.46875 207.058594 L 432.789062 180.339844 C 432.621094 179.824219 432.894531 179.269531 433.40625 179.085938 L 469.125 166.398438 C 469.4375 166.289062 469.78125 166.335938 470.046875 166.53125 L 480.589844 174.191406 C 480.9375 174.445312 481.085938 174.898438 480.949219 175.308594 L 472.609375 200.988281 C 472.5 201.328125 472.214844 201.585938 471.863281 201.660156 L 442.621094 207.730469 C 442.554688 207.742188 442.484375 207.75 442.417969 207.75" fill="#e9c261"/></g></g></svg>