<svg id="Layer_1" data-name="Layer 1" xmlns="http://www.w3.org/2000/svg" viewBox="0 0 800 735.49"><defs><style>.cls-1{fill:#523788;}</style></defs><path class="cls-1" d="M200,678H600a0,0,0,0,1,0,0v14.58a42.88,42.88,0,0,1-42.88,42.88H242.88A42.88,42.88,0,0,1,200,692.61V678a0,0,0,0,1,0,0Z"/><path class="cls-1" d="M800,557.06v14.58a42.88,42.88,0,0,1-42.88,42.89H42.88A42.88,42.88,0,0,1,0,571.64V557.06Z"/><path class="cls-1" d="M396.13,493.53C286.64,491.45,200,399.72,200,290.21V17.15A17.15,17.15,0,0,1,217.15,0h365.7A17.15,17.15,0,0,1,600,17.15V293.56C600,405.13,508.18,495.65,396.13,493.53ZM257.46,57.47V290.72c0,79.75,65.26,146.72,145,145.36,77.47-1.32,140.08-64.75,140.08-142.52V57.47Z"/></svg>